# xmcd
#
# Track frame offsets: 
#        150
#        11192
#        26799
#        39342
#        57524
#        74847
#        88782
#        101388
#        116134
#        126246
#        147391
#        169938
#
# Disc length: 2341 seconds
#
# Revision: 0
# Processed by: cddbd v1.5.2PL0 Copyright (c) Steve Scherf et al.
# Submitted via: ExactAudioCopy v0.95b3
#
DISCID=b509230c
DTITLE=Square Peg - Well Met
DYEAR=2005
DGENRE=Bluegrass
TTITLE0=Couple Dead Presidents
TTITLE1=All I Need
TTITLE2=Laundry
TTITLE3=36 Hours
TTITLE4=Moon in My Pocket
TTITLE5=Pinkerton's Folly
TTITLE6=Sweet Lovely Waters
TTITLE7=Penny Road Pub
TTITLE8=Gonna Mississippi
TTITLE9=Neon Cowboy
TTITLE10=Blue Gray Line
TTITLE11=Break Tune
EXTD=
EXTT0=
EXTT1=
EXTT2=
EXTT3=
EXTT4=
EXTT5=
EXTT6=
EXTT7=
EXTT8=
EXTT9=
EXTT10=
EXTT11=
PLAYORDER=
